<svg xmlns="http://www.w3.org/2000/svg" width="117" height="42" viewBox="0 0 117 42"><defs><style>.a{fill:#3b5a98;}.b,.c{fill:#fff;}.c{font-size:16px;font-family:Gilroy-Medium;font-weight:500;}</style></defs><g transform="translate(6857 14720)"><rect class="a" width="117" height="42" rx="5" transform="translate(-6857 -14720)"/><g transform="translate(-6849 -14710)"><path class="b" d="M11.046.349A11.04,11.04,0,0,0,9.2,22.275V13.7H6.539V10.614H9.2V8.338a3.718,3.718,0,0,1,3.968-4.079,21.991,21.991,0,0,1,2.379.121V7.14H13.918c-1.281,0-1.528.609-1.528,1.5v1.97h3.056l-.4,3.086H12.39v8.651a11.041,11.041,0,0,0-1.344-22Z" transform="translate(0 -0.349)"/></g><text class="c" transform="translate(-6821.988 -14693)"><tspan x="0" y="0">Facebook</tspan></text></g></svg>