<svg xmlns="http://www.w3.org/2000/svg" xmlns:xlink="http://www.w3.org/1999/xlink" width="1400" height="775" viewBox="0 0 1400 775"><defs><style>.a{fill:#f7fbff;}.b{clip-path:url(#a);}.c,.d,.j{fill:none;}.c{stroke:#d9e3ed;}.e{fill:url(#b);}.f{fill:url(#d);}.g{fill:url(#f);}.h{fill:url(#h);}.i,.k{stroke:none;}.k{fill:#d9e3ed;}</style><clipPath id="a"><rect class="a" width="1400" height="775"/></clipPath><linearGradient id="b" x1="0.5" x2="0.5" y2="1" gradientUnits="objectBoundingBox"><stop offset="0" stop-color="#febbba"/><stop offset="1" stop-color="#fd8c8c"/></linearGradient><linearGradient id="d" x1="0.5" x2="0.5" y2="1" gradientUnits="objectBoundingBox"><stop offset="0" stop-color="#2adec0"/><stop offset="1" stop-color="#85efe9"/></linearGradient><linearGradient id="f" x1="0.5" x2="0.5" y2="1" gradientUnits="objectBoundingBox"><stop offset="0" stop-color="#bf96f8"/><stop offset="1" stop-color="#9347fc"/></linearGradient><linearGradient id="h" x1="0.5" x2="0.5" y2="1" gradientUnits="objectBoundingBox"><stop offset="0" stop-color="#feb95f"/><stop offset="1" stop-color="#fb9243"/></linearGradient></defs><rect class="a" width="1400" height="775"/><g class="b"><g class="c" transform="translate(-230 -173)"><circle class="i" cx="332" cy="332" r="332"/><circle class="j" cx="332" cy="332" r="331.5"/></g><g class="d" transform="translate(-230 -173)"><path class="i" d="M449,0C696.976,0,898,201.024,898,449S696.976,898,449,898,0,696.976,0,449,201.024,0,449,0Z"/><path class="k" d="M 449 1 C 433.7178955078125 1 418.3063354492188 1.7781982421875 403.1933288574219 3.31298828125 C 388.2994384765625 4.8255615234375 373.3334350585938 7.10968017578125 358.7113037109375 10.101806640625 C 344.2784423828125 13.05523681640625 329.8336791992188 16.76934814453125 315.7781372070312 21.1409912109375 C 301.8798828125 25.46380615234375 288.0317993164062 30.5323486328125 274.6184692382812 36.2056884765625 C 248.0728759765625 47.4334716796875 222.4695434570312 61.33056640625 198.5196533203125 77.51080322265625 C 174.7969970703125 93.53741455078125 152.4893188476562 111.9429931640625 132.2161254882812 132.2161254882812 C 111.9429931640625 152.4893188476562 93.53741455078125 174.7969970703125 77.51080322265625 198.5196533203125 C 61.33056640625 222.4695434570312 47.4334716796875 248.0728759765625 36.2056884765625 274.6184692382812 C 30.5323486328125 288.0317993164062 25.46380615234375 301.8798828125 21.1409912109375 315.7781372070312 C 16.76934814453125 329.8336791992188 13.05523681640625 344.2784423828125 10.101806640625 358.7113037109375 C 7.10968017578125 373.3334350585938 4.8255615234375 388.2994384765625 3.31298828125 403.1933288574219 C 1.7781982421875 418.3063354492188 1 433.7178955078125 1 449 C 1 464.2820129394531 1.7781982421875 479.6936645507812 3.31298828125 494.8065490722656 C 4.8255615234375 509.7005615234375 7.10968017578125 524.6665649414062 10.101806640625 539.2886962890625 C 13.05523681640625 553.7215576171875 16.76934814453125 568.1663208007812 21.1409912109375 582.221923828125 C 25.46380615234375 596.1201171875 30.5323486328125 609.9681396484375 36.2056884765625 623.3814697265625 C 47.4334716796875 649.9271240234375 61.33056640625 675.5304565429688 77.51080322265625 699.4803466796875 C 93.53741455078125 723.202880859375 111.9429931640625 745.5106811523438 132.2161254882812 765.7838134765625 C 152.4893188476562 786.0570068359375 174.7969970703125 804.4625244140625 198.5196533203125 820.4891967773438 C 222.4695434570312 836.66943359375 248.0728759765625 850.5664672851562 274.6184692382812 861.7943115234375 C 288.0317993164062 867.4676513671875 301.8798828125 872.5361328125 315.7781372070312 876.8590087890625 C 329.8336791992188 881.2306518554688 344.2784423828125 884.9447631835938 358.7113037109375 887.898193359375 C 373.3334350585938 890.8903198242188 388.2994384765625 893.1744384765625 403.1933288574219 894.68701171875 C 418.3063354492188 896.2218017578125 433.7178955078125 897 449 897 C 464.2820129394531 897 479.6936645507812 896.2218017578125 494.8065490722656 894.68701171875 C 509.7005615234375 893.1744384765625 524.6665649414062 890.8903198242188 539.2886962890625 887.898193359375 C 553.7215576171875 884.9447631835938 568.1663208007812 881.2306518554688 582.221923828125 876.8590087890625 C 596.1201171875 872.5361328125 609.9681396484375 867.4676513671875 623.3814697265625 861.7943115234375 C 649.9271240234375 850.5664672851562 675.5304565429688 836.66943359375 699.4803466796875 820.4891967773438 C 723.202880859375 804.4625244140625 745.5106811523438 786.0570068359375 765.7838134765625 765.7838134765625 C 786.0570068359375 745.5106811523438 804.4625244140625 723.202880859375 820.4891967773438 699.4803466796875 C 836.66943359375 675.5304565429688 850.5664672851562 649.9271240234375 861.7943115234375 623.3814697265625 C 867.4676513671875 609.9681396484375 872.5361328125 596.1201171875 876.8590087890625 582.221923828125 C 881.2306518554688 568.1663208007812 884.9447631835938 553.7215576171875 887.898193359375 539.2886962890625 C 890.8903198242188 524.6665649414062 893.1744384765625 509.7005615234375 894.68701171875 494.8065490722656 C 896.2218017578125 479.6936645507812 897 464.2820129394531 897 449 C 897 433.7178955078125 896.2218017578125 418.3063354492188 894.68701171875 403.1933288574219 C 893.1744384765625 388.2994384765625 890.8903198242188 373.3334350585938 887.898193359375 358.7113037109375 C 884.9447631835938 344.2784423828125 881.2306518554688 329.8336791992188 876.8590087890625 315.7781372070312 C 872.5361328125 301.8798828125 867.4676513671875 288.0317993164062 861.7943115234375 274.6184692382812 C 850.5664672851562 248.0728759765625 836.66943359375 222.4695434570312 820.4891967773438 198.5196533203125 C 804.4625244140625 174.7969970703125 786.0570068359375 152.4893188476562 765.7838134765625 132.2161254882812 C 745.5106811523438 111.9429931640625 723.202880859375 93.53741455078125 699.4803466796875 77.51080322265625 C 675.5304565429688 61.33056640625 649.9271240234375 47.4334716796875 623.3814697265625 36.2056884765625 C 609.9681396484375 30.5323486328125 596.1201171875 25.46380615234375 582.221923828125 21.1409912109375 C 568.1663208007812 16.76934814453125 553.7215576171875 13.05523681640625 539.2886962890625 10.101806640625 C 524.6665649414062 7.10968017578125 509.7005615234375 4.8255615234375 494.8065490722656 3.31298828125 C 479.6936645507812 1.7781982421875 464.2820129394531 1 449 1 M 449 0 C 696.9757690429688 0 898 201.0241088867188 898 449 C 898 696.9757690429688 696.9757690429688 898 449 898 C 201.0241088867188 898 0 696.9757690429688 0 449 C 0 201.0241088867188 201.0241088867188 0 449 0 Z"/></g></g><circle class="e" cx="7" cy="7" r="7" transform="translate(251 670)"/><circle class="e" cx="12" cy="12" r="12" transform="translate(246 660)"/><circle class="f" cx="5" cy="5" r="5" transform="translate(601 233)"/><circle class="f" cx="8" cy="8" r="8" transform="translate(598 226)"/><circle class="g" cx="4" cy="4" r="4" transform="translate(1170 139)"/><circle class="g" cx="6" cy="6" r="6" transform="translate(1168 134)"/><g transform="translate(13 12)"><circle class="h" cx="5" cy="5" r="5" transform="translate(824 622)"/><circle class="h" cx="8" cy="8" r="8" transform="translate(821 615)"/></g></svg>