<svg xmlns="http://www.w3.org/2000/svg" width="108" height="42" viewBox="0 0 108 42"><defs><style>.a{fill:#117ab9;}.b,.c{fill:#fff;}.b{font-size:16px;font-family:Gilroy-Medium;font-weight:500;}</style></defs><g transform="translate(6857 14720)"><rect class="a" width="108" height="42" rx="5" transform="translate(-6857 -14720)"/><text class="b" transform="translate(-6821.988 -14693)"><tspan x="0" y="0">LinkedIn</tspan></text><g transform="translate(-6849.202 -14711.202)"><path class="c" d="M6609.2,14733.2a11,11,0,1,1,7.778-3.222A10.931,10.931,0,0,1,6609.2,14733.2Zm1.187-13.573h-2.777c.041.771,0,8.268,0,8.342h2.773v-4.659a1.931,1.931,0,0,1,.092-.677,1.528,1.528,0,0,1,1.424-1.013c.919,0,1.4.652,1.4,1.886v4.463h2.773v-4.785c0-2.35-1.194-3.753-3.195-3.753a2.757,2.757,0,0,0-2.5,1.379Zm-7.081,0v8.342h2.773v-8.342Zm1.405-4.02a1.445,1.445,0,1,0-.037,2.881h.019a1.445,1.445,0,1,0,.019-2.881Z" transform="translate(-6598.202 -14711.203)"/></g></g></svg>