<svg xmlns="http://www.w3.org/2000/svg" width="43.157" height="43.157" viewBox="0 0 43.157 43.157"><defs><style>.a{fill:#117ab9;}</style></defs><g transform="translate(0.001)"><g transform="translate(0 0)"><path class="a" d="M21.578,43.157A21.584,21.584,0,0,1,13.178,1.7a21.584,21.584,0,0,1,16.8,39.765A21.442,21.442,0,0,1,21.578,43.157Zm5.3-22.717c1.257,0,2.755.642,2.755,3.7v8.753h5.44V23.51a7.953,7.953,0,0,0-1.789-5.565,5.889,5.889,0,0,0-4.473-1.8,5.373,5.373,0,0,0-4.9,2.7V16.532H18.464c.072,1.519,0,16.212,0,16.36H23.9V23.755a3.61,3.61,0,0,1,.18-1.326A2.987,2.987,0,0,1,26.874,20.44ZM10.018,16.532v16.36h5.438V16.532Zm2.755-7.887A2.835,2.835,0,1,0,12.7,14.3h.036a2.836,2.836,0,1,0,.036-5.654Z"/></g></g></svg>