<svg xmlns="http://www.w3.org/2000/svg" width="43.156" height="43.156" viewBox="0 0 43.156 43.156"><defs><style>.a{fill:#178cf4;}</style></defs><path class="a" d="M21.578,0A21.578,21.578,0,1,0,43.156,21.578,21.581,21.581,0,0,0,21.578,0Zm9.852,16.824q.014.319.014.64A14,14,0,0,1,17.353,31.556h0a14.019,14.019,0,0,1-7.592-2.225,10.073,10.073,0,0,0,1.181.068,9.938,9.938,0,0,0,6.152-2.12,4.958,4.958,0,0,1-4.627-3.44,4.936,4.936,0,0,0,2.237-.085A4.954,4.954,0,0,1,10.731,18.9c0-.022,0-.042,0-.063a4.919,4.919,0,0,0,2.243.619,4.957,4.957,0,0,1-1.533-6.612A14.062,14.062,0,0,0,21.65,18.019,4.956,4.956,0,0,1,30.09,13.5a9.934,9.934,0,0,0,3.145-1.2,4.972,4.972,0,0,1-2.178,2.739,9.878,9.878,0,0,0,2.844-.78A10.065,10.065,0,0,1,31.431,16.824Zm0,0" transform="translate(0 0)"/></svg>