<svg xmlns="http://www.w3.org/2000/svg" width="94" height="42" viewBox="0 0 94 42"><defs><style>.a{fill:#178cf4;}.b,.c{fill:#fff;}.b{font-size:16px;font-family:Gilroy-Medium;font-weight:500;}</style></defs><g transform="translate(6857 14720)"><rect class="a" width="94" height="42" rx="5" transform="translate(-6857 -14720)"/><text class="b" transform="translate(-6821.988 -14693)"><tspan x="0" y="0">Twitter</tspan></text><path class="c" d="M11,0A11,11,0,1,0,22,11,11,11,0,0,0,11,0Zm5.022,8.577q.007.162.007.326a7.135,7.135,0,0,1-7.184,7.184h0a7.147,7.147,0,0,1-3.87-1.134,5.135,5.135,0,0,0,.6.035,5.066,5.066,0,0,0,3.136-1.081,2.528,2.528,0,0,1-2.359-1.754A2.516,2.516,0,0,0,7.5,12.11,2.525,2.525,0,0,1,5.47,9.635c0-.011,0-.022,0-.032a2.507,2.507,0,0,0,1.144.316,2.527,2.527,0,0,1-.782-3.371,7.168,7.168,0,0,0,5.2,2.638,2.526,2.526,0,0,1,4.3-2.3,5.064,5.064,0,0,0,1.6-.613,2.535,2.535,0,0,1-1.11,1.4,5.035,5.035,0,0,0,1.45-.4A5.131,5.131,0,0,1,16.022,8.577Zm0,0" transform="translate(-6849 -14710.583)"/></g></svg>