<svg xmlns="http://www.w3.org/2000/svg" width="73" height="64.516" viewBox="0 0 73 64.516"><defs><style>.a{fill:#fd0d1b;}.b{fill:red;}.c{fill:#fff;}</style></defs><g transform="translate(-952 -374.484)"><rect class="a" width="43" height="7" transform="translate(967 417)"/><g transform="translate(953.641 374.484)"><path class="b" d="M69.263,7.748A8.86,8.86,0,0,0,63.03,1.515C57.5,0,35.359,0,35.359,0S13.223,0,7.689,1.457A9.041,9.041,0,0,0,1.456,7.748C0,13.282,0,24.758,0,24.758s0,11.534,1.456,17.01A8.862,8.862,0,0,0,7.69,48c5.592,1.515,27.67,1.515,27.67,1.515s22.136,0,27.67-1.457a8.86,8.86,0,0,0,6.233-6.233c1.456-5.534,1.456-17.01,1.456-17.01S70.778,13.282,69.263,7.748Zm0,0"/><path class="c" d="M204.969,123.689l18.408-10.6-18.408-10.6Zm0,0" transform="translate(-176.657 -88.329)"/></g></g></svg>